<svg xmlns="http://www.w3.org/2000/svg">
  
  <symbol id="logo" viewBox="0 0 41 33">
    <path d="M10.0335 33C8.55838 33 6.89248 32.8728 5.03584 32.6185C4.0185 32.4913 3.31908 32.2243 2.93757 31.8173C2.55607 31.4104 2.39075 30.7491 2.44162 29.8335C2.61965 27.3156 3.03931 24.2127 3.70058 20.5249C4.36185 16.8116 5.16301 13.2381 6.10405 9.80462C6.28208 9.16879 6.63815 8.7237 7.17225 8.46936C7.70636 8.21503 8.40578 8.08786 9.27052 8.08786C10.822 8.08786 11.5977 8.52023 11.5977 9.38497C11.5977 9.74104 11.5214 10.148 11.3688 10.6058C10.7075 12.6405 10.0462 15.3746 9.38497 18.8081C8.7237 22.2162 8.25318 25.4717 7.97341 28.5746C8.73642 28.6509 9.60116 28.689 10.5676 28.689C15.0185 28.689 18.3376 27.341 20.5249 24.6451C22.7376 21.9491 23.8439 18.3503 23.8439 13.8486C23.8439 10.822 22.9792 8.48208 21.2497 6.8289C19.5202 5.17572 17.0786 4.34913 13.9249 4.34913C11.8902 4.34913 9.86821 4.66705 7.85896 5.30289C5.87514 5.93873 4.08208 6.77803 2.47977 7.82081C2.14913 8.04971 1.79306 8.16416 1.41156 8.16416C0.979191 8.16416 0.635838 7.98613 0.381503 7.63006C0.127168 7.24855 0 6.79075 0 6.25665C0 5.64624 0.101734 5.15029 0.305202 4.76879C0.508671 4.36185 0.852023 3.99306 1.33526 3.66243C3.09017 2.46705 5.15029 1.56416 7.51561 0.953756C9.88092 0.317919 12.1572 0 14.3445 0C17.4474 0 20.1306 0.546821 22.3942 1.64046C24.6578 2.70867 26.4 4.28555 27.6208 6.3711C28.8416 8.45665 29.452 10.9746 29.452 13.9249C29.452 17.7653 28.689 21.1225 27.163 23.9965C25.637 26.8451 23.4116 29.0578 20.4867 30.6347C17.5618 32.2116 14.0775 33 10.0335 33Z" fill="#6C26B2"/>
    <path d="M36.8979 12.5133C35.8297 12.5133 35.0285 12.2717 34.4944 11.7884C33.9603 11.2798 33.6933 10.5803 33.6933 9.69017C33.6933 8.8 34.0366 8.06243 34.7233 7.47746C35.4355 6.86705 36.3129 6.56185 37.3557 6.56185C38.2967 6.56185 39.0597 6.79075 39.6447 7.24855C40.2297 7.70636 40.5222 8.35491 40.5222 9.19422C40.5222 10.2116 40.1915 11.0254 39.5303 11.6358C38.869 12.2208 37.9915 12.5133 36.8979 12.5133ZM33.2355 33C32.4216 33 31.862 32.8347 31.5568 32.504C31.2516 32.1734 31.099 31.652 31.099 30.9399C31.099 30.7364 31.1245 30.3803 31.1753 29.8717C31.5823 25.2173 32.2563 20.9827 33.1973 17.1676C33.4008 16.3792 33.7314 15.8324 34.1892 15.5272C34.6724 15.1965 35.4355 15.0312 36.4782 15.0312C37.5719 15.0312 38.1187 15.4763 38.1187 16.3665C38.1187 16.4936 38.0933 16.7353 38.0424 17.0913C36.8979 22.5341 36.2112 27.0994 35.9823 30.7873C35.9314 31.6012 35.6898 32.1734 35.2574 32.504C34.825 32.8347 34.1511 33 33.2355 33Z" fill="#6C26B2"/>
  </symbol>

  <symbol id="telegram" viewBox="0 0 56 56">
    <path d="M22.476 34.6808L21.6269 46.4071C22.8418 46.4071 23.368 45.8948 23.999 45.2795L29.695 39.935L41.4976 48.421C43.6622 49.6054 45.1873 48.9817 45.7712 46.4659L53.5185 10.8249L53.5206 10.8228C54.2072 7.68125 52.3634 6.45275 50.2544 7.22345L4.71641 24.3405C1.60853 25.5249 1.65559 27.2258 4.18809 27.9965L15.8303 31.5518L42.873 14.9388C44.1456 14.1114 45.3028 14.5692 44.351 15.3966L22.476 34.6808Z" fill="currentColor"></path>
  </symbol>

  <symbol id="gmail" viewBox="0 0 56 56">
    <path d="M35.3348 16.2268L42.8938 10.0384C38.8527 6.68332 33.6617 4.66663 28.0002 4.66663C18.9822 4.66663 11.1592 9.78201 7.2758 17.2692C5.60783 20.482 4.66675 24.1308 4.66675 28C4.66675 32.0013 5.67318 35.7667 7.44752 39.0577C11.3886 46.3667 19.1145 51.3333 28.0004 51.3333C33.5299 51.3333 38.6094 49.4102 42.6081 46.1962C46.7194 42.8911 49.6871 38.2205 50.8229 32.872C51.1575 31.3002 51.3332 29.6707 51.3332 28.0002C51.3332 26.5104 51.1934 25.0527 50.9255 23.6412H28.5128V32.872H40.9897C39.8666 35.8694 37.7346 38.3733 35.0064 39.9733C32.9514 41.1795 30.5566 41.8706 28.0004 41.8706C22.053 41.8706 16.9799 38.1269 15.0094 32.868C14.4402 31.354 14.1296 29.7128 14.1294 28C14.1294 26.4218 14.3936 24.9052 14.8782 23.4923C16.75 18.0448 21.9181 14.1294 28.0002 14.1294C30.6937 14.1294 33.2079 14.8974 35.3348 16.2268Z" fill="currentColor"/>
  </symbol>

  <symbol id="linkedin" viewBox="0 0 56 56">
    <path d="M15.1123 49H5.43741V17.8438H15.1123V49V49ZM10.2697 13.5938C7.1766 13.5938 4.66675 11.0313 4.66675 7.93754C4.66675 4.84379 7.1766 2.33337 10.2697 2.33337C13.3627 2.33337 15.8726 4.84379 15.8726 7.93754C15.8726 11.0313 13.3627 13.5938 10.2697 13.5938ZM51.323 49H41.6689V33.8334C41.6689 30.2188 41.596 25.5834 36.6388 25.5834C31.6086 25.5834 30.838 29.5105 30.838 33.573V49H21.1735V17.8438H30.4527V22.0938H30.588C31.8794 19.6459 35.035 17.0625 39.7422 17.0625C49.5317 17.0625 51.3334 23.5105 51.3334 31.8855V49H51.323Z" fill="currentColor"/>
  </symbol>  

  <symbol id="upper-arrow" viewBox="0 0 32 16">
    <g clip-path="url(#clip0_2059_16)">
    <path d="M9.48071 12.0233C9.09008 12.4139 8.4567 12.4138 8.06626 12.023V12.023C7.67612 11.6324 7.67622 10.9997 8.06647 10.6093L15.0627 3.61068C15.1861 3.48648 15.3328 3.38791 15.4945 3.32064C15.6562 3.25338 15.8296 3.21875 16.0047 3.21875C16.1798 3.21875 16.3531 3.25338 16.5148 3.32064C16.6765 3.38791 16.8232 3.48648 16.9467 3.61068L23.9465 10.6093C24.3369 10.9996 24.3369 11.6324 23.9466 12.0227V12.0227C23.5563 12.413 22.9236 12.413 22.5333 12.0228L16.0067 5.49735L9.48071 12.0233Z" fill="currentColor"/>
    </g>
    <defs>
    <clipPath id="upper-arrow">
    <rect y="16" width="16" height="32" rx="8" transform="rotate(-90 0 16)" fill="currentColor"/>
    </clipPath>
    </defs>
  </symbol>

</svg>