<svg width="32" height="16" viewBox="0 0 32 16" fill="none" xmlns="http://www.w3.org/2000/svg">
<g clip-path="url(#clip0_2059_16)">
<path d="M9.48071 12.0233C9.09008 12.4139 8.4567 12.4138 8.06626 12.023V12.023C7.67612 11.6324 7.67622 10.9997 8.06647 10.6093L15.0627 3.61068C15.1861 3.48648 15.3328 3.38791 15.4945 3.32064C15.6562 3.25338 15.8296 3.21875 16.0047 3.21875C16.1798 3.21875 16.3531 3.25338 16.5148 3.32064C16.6765 3.38791 16.8232 3.48648 16.9467 3.61068L23.9465 10.6093C24.3369 10.9996 24.3369 11.6324 23.9466 12.0227V12.0227C23.5563 12.413 22.9236 12.413 22.5333 12.0228L16.0067 5.49735L9.48071 12.0233Z" fill="white"/>
</g>
<defs>
<clipPath id="clip0_2059_16">
<rect y="16" width="16" height="32" rx="8" transform="rotate(-90 0 16)" fill="white"/>
</clipPath>
</defs>
</svg>
